<svg xmlns="http://www.w3.org/2000/svg" viewBox="0 0 1200 800" width="1200" height="800">
  <rect width="1200" height="800" fill="#0f0f23"/>

  <!-- Title -->
  <text x="600" y="52" text-anchor="middle" fill="#ffffff" font-family="system-ui, -apple-system, Segoe UI, Helvetica, Arial, sans-serif" font-size="32" font-weight="700" letter-spacing="1">ADD Learning System</text>
  <text x="600" y="82" text-anchor="middle" fill="#888899" font-family="system-ui, -apple-system, Segoe UI, Helvetica, Arial, sans-serif" font-size="15" letter-spacing="0.5">Continuous knowledge accumulation across projects</text>

  <!-- Divider line under title -->
  <line x1="200" y1="100" x2="1000" y2="100" stroke="#b00149" stroke-width="1" opacity="0.4"/>

  <!-- ===================== LEFT SIDE: Knowledge Tiers ===================== -->

  <text x="340" y="140" text-anchor="middle" fill="#ffffff" font-family="system-ui, -apple-system, Segoe UI, Helvetica, Arial, sans-serif" font-size="16" font-weight="600" letter-spacing="1" opacity="0.7">KNOWLEDGE TIERS</text>

  <!-- Tier 1: Plugin-Global (widest) -->
  <rect x="60" y="170" width="560" height="80" rx="6" fill="#b00149" opacity="0.15"/>
  <rect x="60" y="170" width="560" height="80" rx="6" fill="none" stroke="#b00149" stroke-width="2"/>
  <text x="90" y="200" fill="#b00149" font-family="system-ui, -apple-system, Segoe UI, Helvetica, Arial, sans-serif" font-size="13" font-weight="700" letter-spacing="1">TIER 1</text>
  <text x="145" y="200" fill="#ffffff" font-family="system-ui, -apple-system, Segoe UI, Helvetica, Arial, sans-serif" font-size="16" font-weight="600">Plugin-Global</text>
  <text x="90" y="228" fill="#aaaabb" font-family="system-ui, -apple-system, Segoe UI, Helvetica, Arial, sans-serif" font-size="13">Universal best practices for all users</text>
  <!-- Location -->
  <text x="400" y="214" fill="#777788" font-family="monospace" font-size="11">knowledge/global.md</text>

  <!-- Tier 2: User-Local (medium) -->
  <rect x="110" y="290" width="460" height="80" rx="6" fill="#3b82f6" opacity="0.12"/>
  <rect x="110" y="290" width="460" height="80" rx="6" fill="none" stroke="#3b82f6" stroke-width="2"/>
  <text x="140" y="320" fill="#3b82f6" font-family="system-ui, -apple-system, Segoe UI, Helvetica, Arial, sans-serif" font-size="13" font-weight="700" letter-spacing="1">TIER 2</text>
  <text x="195" y="320" fill="#ffffff" font-family="system-ui, -apple-system, Segoe UI, Helvetica, Arial, sans-serif" font-size="16" font-weight="600">User-Local</text>
  <text x="140" y="348" fill="#aaaabb" font-family="system-ui, -apple-system, Segoe UI, Helvetica, Arial, sans-serif" font-size="13">Cross-project wisdom</text>
  <!-- Location -->
  <text x="370" y="334" fill="#777788" font-family="monospace" font-size="11">~/.claude/add/library.md</text>

  <!-- Tier 3: Project-Specific (narrowest) -->
  <rect x="160" y="410" width="360" height="80" rx="6" fill="#22c55e" opacity="0.12"/>
  <rect x="160" y="410" width="360" height="80" rx="6" fill="none" stroke="#22c55e" stroke-width="2"/>
  <text x="190" y="440" fill="#22c55e" font-family="system-ui, -apple-system, Segoe UI, Helvetica, Arial, sans-serif" font-size="13" font-weight="700" letter-spacing="1">TIER 3</text>
  <text x="245" y="440" fill="#ffffff" font-family="system-ui, -apple-system, Segoe UI, Helvetica, Arial, sans-serif" font-size="16" font-weight="600">Project-Specific</text>
  <text x="190" y="468" fill="#aaaabb" font-family="system-ui, -apple-system, Segoe UI, Helvetica, Arial, sans-serif" font-size="13">Discoveries for this project</text>
  <!-- Location -->
  <text x="370" y="454" fill="#777788" font-family="monospace" font-size="11">.add/learnings.md</text>

  <!-- UPWARD arrows (promote) — left side of tiers -->
  <!-- Arrow from Tier 3 to Tier 2 -->
  <line x1="130" y1="410" x2="130" y2="370" stroke="#22c55e" stroke-width="1.5" stroke-dasharray="4,3"/>
  <polygon points="130,370 125,380 135,380" fill="#22c55e"/>
  <text x="105" y="395" text-anchor="middle" fill="#22c55e" font-family="system-ui, -apple-system, Segoe UI, Helvetica, Arial, sans-serif" font-size="10" font-weight="600" transform="rotate(-90,105,395)">promote</text>

  <!-- Arrow from Tier 2 to Tier 1 -->
  <line x1="80" y1="290" x2="80" y2="250" stroke="#3b82f6" stroke-width="1.5" stroke-dasharray="4,3"/>
  <polygon points="80,250 75,260 85,260" fill="#3b82f6"/>
  <text x="55" y="275" text-anchor="middle" fill="#3b82f6" font-family="system-ui, -apple-system, Segoe UI, Helvetica, Arial, sans-serif" font-size="10" font-weight="600" transform="rotate(-90,55,275)">promote</text>

  <!-- DOWNWARD arrow (precedence) — right side of tiers -->
  <line x1="600" y1="215" x2="600" y2="440" stroke="#ffffff" stroke-width="1.5" opacity="0.3"/>
  <polygon points="600,445 595,435 605,435" fill="#ffffff" opacity="0.5"/>
  <!-- Precedence label -->
  <text x="600" y="470" text-anchor="middle" fill="#ffffff" font-family="system-ui, -apple-system, Segoe UI, Helvetica, Arial, sans-serif" font-size="11" font-weight="600" opacity="0.5">PRECEDENCE</text>
  <text x="600" y="486" text-anchor="middle" fill="#ffffff" font-family="system-ui, -apple-system, Segoe UI, Helvetica, Arial, sans-serif" font-size="10" opacity="0.35">project overrides user overrides global</text>

  <!-- ===================== RIGHT SIDE: Checkpoint Triggers ===================== -->

  <text x="890" y="140" text-anchor="middle" fill="#ffffff" font-family="system-ui, -apple-system, Segoe UI, Helvetica, Arial, sans-serif" font-size="16" font-weight="600" letter-spacing="1" opacity="0.7">CHECKPOINT TRIGGERS</text>
  <text x="890" y="158" text-anchor="middle" fill="#666677" font-family="system-ui, -apple-system, Segoe UI, Helvetica, Arial, sans-serif" font-size="11">Auto-populate Tier 3</text>

  <!-- Trigger 1: After /add:verify — shield icon -->
  <g transform="translate(700, 185)">
    <rect width="380" height="60" rx="6" fill="#ffffff" opacity="0.04"/>
    <rect width="380" height="60" rx="6" fill="none" stroke="#ffffff" stroke-width="1" opacity="0.1"/>
    <!-- Shield icon -->
    <g transform="translate(25, 12)">
      <path d="M18,4 L18,20 C18,28 10,34 10,34 C10,34 2,28 2,20 L2,4 L10,0 Z" fill="none" stroke="#b00149" stroke-width="1.8" transform="scale(0.9)"/>
      <path d="M7,16 L10,20 L16,10" fill="none" stroke="#b00149" stroke-width="1.8" transform="scale(0.9)"/>
    </g>
    <text x="60" y="28" fill="#ffffff" font-family="system-ui, -apple-system, Segoe UI, Helvetica, Arial, sans-serif" font-size="14" font-weight="600">After /add:verify</text>
    <text x="60" y="46" fill="#777788" font-family="system-ui, -apple-system, Segoe UI, Helvetica, Arial, sans-serif" font-size="12">Quality gate results captured</text>
  </g>

  <!-- Trigger 2: After TDD cycle — circular arrows -->
  <g transform="translate(700, 260)">
    <rect width="380" height="60" rx="6" fill="#ffffff" opacity="0.04"/>
    <rect width="380" height="60" rx="6" fill="none" stroke="#ffffff" stroke-width="1" opacity="0.1"/>
    <!-- Circular arrows icon -->
    <g transform="translate(20, 10)">
      <path d="M18,6 A10,10 0 0,1 24,20" fill="none" stroke="#3b82f6" stroke-width="1.8"/>
      <polygon points="24,20 21,15 27,16" fill="#3b82f6"/>
      <path d="M10,26 A10,10 0 0,1 4,12" fill="none" stroke="#3b82f6" stroke-width="1.8"/>
      <polygon points="4,12 7,17 1,16" fill="#3b82f6"/>
    </g>
    <text x="60" y="28" fill="#ffffff" font-family="system-ui, -apple-system, Segoe UI, Helvetica, Arial, sans-serif" font-size="14" font-weight="600">After TDD Cycle</text>
    <text x="60" y="46" fill="#777788" font-family="system-ui, -apple-system, Segoe UI, Helvetica, Arial, sans-serif" font-size="12">RED / GREEN / REFACTOR learnings</text>
  </g>

  <!-- Trigger 3: After deployment — rocket icon -->
  <g transform="translate(700, 335)">
    <rect width="380" height="60" rx="6" fill="#ffffff" opacity="0.04"/>
    <rect width="380" height="60" rx="6" fill="none" stroke="#ffffff" stroke-width="1" opacity="0.1"/>
    <!-- Rocket icon -->
    <g transform="translate(22, 8)">
      <path d="M14,2 C14,2 8,8 8,18 L12,22 L16,22 L20,18 C20,8 14,2 14,2 Z" fill="none" stroke="#22c55e" stroke-width="1.8" transform="scale(0.85)"/>
      <circle cx="12" cy="11" r="2" fill="none" stroke="#22c55e" stroke-width="1.5" transform="scale(0.85)"/>
      <path d="M8,20 L5,24 L10,22" fill="none" stroke="#22c55e" stroke-width="1.3" transform="scale(0.85)"/>
      <path d="M20,20 L23,24 L18,22" fill="none" stroke="#22c55e" stroke-width="1.3" transform="scale(0.85)"/>
    </g>
    <text x="60" y="28" fill="#ffffff" font-family="system-ui, -apple-system, Segoe UI, Helvetica, Arial, sans-serif" font-size="14" font-weight="600">After Deployment</text>
    <text x="60" y="46" fill="#777788" font-family="system-ui, -apple-system, Segoe UI, Helvetica, Arial, sans-serif" font-size="12">Environment promotion outcomes</text>
  </g>

  <!-- Trigger 4: After away session — clock icon -->
  <g transform="translate(700, 410)">
    <rect width="380" height="60" rx="6" fill="#ffffff" opacity="0.04"/>
    <rect width="380" height="60" rx="6" fill="none" stroke="#ffffff" stroke-width="1" opacity="0.1"/>
    <!-- Clock icon -->
    <g transform="translate(22, 10)">
      <circle cx="14" cy="14" r="12" fill="none" stroke="#eab308" stroke-width="1.8" transform="scale(0.85)"/>
      <line x1="12" y1="12" x2="12" y2="6" stroke="#eab308" stroke-width="1.8" transform="scale(0.85)"/>
      <line x1="12" y1="12" x2="17" y2="14" stroke="#eab308" stroke-width="1.8" transform="scale(0.85)"/>
    </g>
    <text x="60" y="28" fill="#ffffff" font-family="system-ui, -apple-system, Segoe UI, Helvetica, Arial, sans-serif" font-size="14" font-weight="600">After Away Session</text>
    <text x="60" y="46" fill="#777788" font-family="system-ui, -apple-system, Segoe UI, Helvetica, Arial, sans-serif" font-size="12">Autonomous work summary</text>
  </g>

  <!-- Connecting line from triggers to Tier 3 -->
  <line x1="700" y1="350" x2="520" y2="450" stroke="#22c55e" stroke-width="1" stroke-dasharray="6,4" opacity="0.4"/>
  <text x="620" y="388" fill="#22c55e" font-family="system-ui, -apple-system, Segoe UI, Helvetica, Arial, sans-serif" font-size="10" font-weight="600" opacity="0.6" transform="rotate(-20,620,388)">auto-populate</text>

  <!-- ===================== BOTTOM: Retrospective Flow ===================== -->

  <!-- Separator -->
  <line x1="60" y1="540" x2="1140" y2="540" stroke="#ffffff" stroke-width="1" opacity="0.08"/>

  <text x="600" y="575" text-anchor="middle" fill="#ffffff" font-family="system-ui, -apple-system, Segoe UI, Helvetica, Arial, sans-serif" font-size="16" font-weight="600" letter-spacing="1" opacity="0.7">RETROSPECTIVE FLOW</text>

  <!-- Flow boxes -->
  <!-- Step 1: Agent Work -->
  <g transform="translate(60, 600)">
    <rect width="170" height="70" rx="6" fill="#b00149" opacity="0.15"/>
    <rect width="170" height="70" rx="6" fill="none" stroke="#b00149" stroke-width="1.5"/>
    <text x="85" y="30" text-anchor="middle" fill="#ffffff" font-family="system-ui, -apple-system, Segoe UI, Helvetica, Arial, sans-serif" font-size="14" font-weight="600">Agent Work</text>
    <text x="85" y="50" text-anchor="middle" fill="#888899" font-family="system-ui, -apple-system, Segoe UI, Helvetica, Arial, sans-serif" font-size="11">TDD, deploy, verify</text>
  </g>

  <!-- Arrow 1 -->
  <line x1="240" y1="635" x2="280" y2="635" stroke="#ffffff" stroke-width="1.5" opacity="0.4"/>
  <polygon points="282,635 274,630 274,640" fill="#ffffff" opacity="0.5"/>

  <!-- Step 2: Auto-Checkpoint -->
  <g transform="translate(290, 600)">
    <rect width="170" height="70" rx="6" fill="#3b82f6" opacity="0.12"/>
    <rect width="170" height="70" rx="6" fill="none" stroke="#3b82f6" stroke-width="1.5"/>
    <text x="85" y="30" text-anchor="middle" fill="#ffffff" font-family="system-ui, -apple-system, Segoe UI, Helvetica, Arial, sans-serif" font-size="14" font-weight="600">Auto-Checkpoint</text>
    <text x="85" y="50" text-anchor="middle" fill="#888899" font-family="system-ui, -apple-system, Segoe UI, Helvetica, Arial, sans-serif" font-size="11">Captures to Tier 3</text>
  </g>

  <!-- Arrow 2 -->
  <line x1="470" y1="635" x2="510" y2="635" stroke="#ffffff" stroke-width="1.5" opacity="0.4"/>
  <polygon points="512,635 504,630 504,640" fill="#ffffff" opacity="0.5"/>

  <!-- Step 3: /add:retro -->
  <g transform="translate(520, 600)">
    <rect width="170" height="70" rx="6" fill="#22c55e" opacity="0.12"/>
    <rect width="170" height="70" rx="6" fill="none" stroke="#22c55e" stroke-width="1.5"/>
    <text x="85" y="30" text-anchor="middle" fill="#ffffff" font-family="system-ui, -apple-system, Segoe UI, Helvetica, Arial, sans-serif" font-size="14" font-weight="600">/add:retro</text>
    <text x="85" y="50" text-anchor="middle" fill="#888899" font-family="system-ui, -apple-system, Segoe UI, Helvetica, Arial, sans-serif" font-size="11">Human reviews findings</text>
  </g>

  <!-- Arrow 3 -->
  <line x1="700" y1="635" x2="740" y2="635" stroke="#ffffff" stroke-width="1.5" opacity="0.4"/>
  <polygon points="742,635 734,630 734,640" fill="#ffffff" opacity="0.5"/>

  <!-- Step 4: Promote Learnings -->
  <g transform="translate(750, 600)">
    <rect width="170" height="70" rx="6" fill="#eab308" opacity="0.12"/>
    <rect width="170" height="70" rx="6" fill="none" stroke="#eab308" stroke-width="1.5"/>
    <text x="85" y="30" text-anchor="middle" fill="#ffffff" font-family="system-ui, -apple-system, Segoe UI, Helvetica, Arial, sans-serif" font-size="14" font-weight="600">Promote Learnings</text>
    <text x="85" y="50" text-anchor="middle" fill="#888899" font-family="system-ui, -apple-system, Segoe UI, Helvetica, Arial, sans-serif" font-size="11">Tier 3 -> 2 -> 1</text>
  </g>

  <!-- Arrow 4 -->
  <line x1="930" y1="635" x2="970" y2="635" stroke="#ffffff" stroke-width="1.5" opacity="0.4"/>
  <polygon points="972,635 964,630 964,640" fill="#ffffff" opacity="0.5"/>

  <!-- Step 5: Knowledge Tiers -->
  <g transform="translate(980, 600)">
    <rect width="170" height="70" rx="6" fill="#b00149" opacity="0.15"/>
    <rect width="170" height="70" rx="6" fill="none" stroke="#b00149" stroke-width="1.5"/>
    <text x="85" y="30" text-anchor="middle" fill="#ffffff" font-family="system-ui, -apple-system, Segoe UI, Helvetica, Arial, sans-serif" font-size="14" font-weight="600">Knowledge Tiers</text>
    <text x="85" y="50" text-anchor="middle" fill="#888899" font-family="system-ui, -apple-system, Segoe UI, Helvetica, Arial, sans-serif" font-size="11">Enriched for next cycle</text>
  </g>

  <!-- Cycle-back arrow from Knowledge Tiers back to Agent Work -->
  <path d="M1065,670 L1065,740 Q1065,755 1050,755 L145,755 Q130,755 130,740 L130,670" fill="none" stroke="#b00149" stroke-width="1.5" stroke-dasharray="6,4" opacity="0.35"/>
  <polygon points="130,670 125,680 135,680" fill="#b00149" opacity="0.5"/>
  <text x="600" y="750" text-anchor="middle" fill="#b00149" font-family="system-ui, -apple-system, Segoe UI, Helvetica, Arial, sans-serif" font-size="11" font-weight="600" opacity="0.5">agents read all tiers before next task</text>

  <!-- ===================== Decorative elements ===================== -->

  <!-- Subtle corner accents -->
  <line x1="20" y1="20" x2="60" y2="20" stroke="#b00149" stroke-width="2" opacity="0.3"/>
  <line x1="20" y1="20" x2="20" y2="60" stroke="#b00149" stroke-width="2" opacity="0.3"/>
  <line x1="1180" y1="20" x2="1140" y2="20" stroke="#b00149" stroke-width="2" opacity="0.3"/>
  <line x1="1180" y1="20" x2="1180" y2="60" stroke="#b00149" stroke-width="2" opacity="0.3"/>
  <line x1="20" y1="780" x2="60" y2="780" stroke="#b00149" stroke-width="2" opacity="0.3"/>
  <line x1="20" y1="780" x2="20" y2="740" stroke="#b00149" stroke-width="2" opacity="0.3"/>
  <line x1="1180" y1="780" x2="1140" y2="780" stroke="#b00149" stroke-width="2" opacity="0.3"/>
  <line x1="1180" y1="780" x2="1180" y2="740" stroke="#b00149" stroke-width="2" opacity="0.3"/>
</svg>